<?xml version="1.0" standalone="no"?><!DOCTYPE svg PUBLIC "-//W3C//DTD SVG 1.1//EN" "http://www.w3.org/Graphics/SVG/1.1/DTD/svg11.dtd"><svg t="1782710097983" class="icon" viewBox="0 0 1024 1024" version="1.1" xmlns="http://www.w3.org/2000/svg" p-id="37075" xmlns:xlink="http://www.w3.org/1999/xlink" width="200" height="200"><path d="M575.076594 782.488481V639.261429h-28.918633v56.371892h-56.666604v-56.371892h-28.918633v143.227052h28.918633v-62.625316h56.666604v62.625316zM589.843926 663.49025h42.49893v118.998231h28.919656V663.49025h42.401716v-24.228821H589.843926zM718.327182 663.49025h42.499953v118.998231h28.919657V663.49025h42.400692v-24.228821H718.327182zM950.829514 655.429667c-5.536087-7.195889-12.407588-11.871375-20.614504-14.020319-5.341658-1.431605-16.804734-2.148943-34.391274-2.148943h-46.406937v143.227053h28.918634v-54.027498h18.856463c13.091156 0 23.088858-0.683569 29.994128-2.051729 5.080715-1.107217 10.078543-3.370771 14.997576-6.789636 4.915963-3.418866 8.970302-8.124028 12.163017-14.117533 3.189645-5.992481 4.787026-13.384845 4.787026-22.178115 0-11.397584-2.769067-20.695345-8.304129-27.89328z m-24.76708 39.422871c-2.182712 3.191692-5.194302 5.53711-9.036817 7.034207-3.843538 1.499144-11.464099 2.246157-22.861684 2.246157h-15.827477v-40.642652h13.971199c10.420327 0 17.356296 0.326435 20.809955 0.977257 4.689812 0.846274 8.56405 2.964518 11.625782 6.350638 3.060709 3.387144 4.592598 7.687076 4.592598 12.896728-0.001023 4.234441-1.092891 7.945973-3.273556 11.137665z" fill="#d81e06" p-id="37076"></path><path d="M430.570409 830.30144v-11.143805h-0.008186V578.384943h0.008186v-49.786916h148.521639c-0.407276 16.797571-5.729491 54.006008-7.333013 70.391186h35.58445c1.538029-16.399505 6.814196-53.605895 7.205099-70.390163H732.292242c-0.877997 16.981766-3.093455 54.213739-6.528694 70.390163h33.379225c4.126994-21.542642 6.287193-64.388473 6.287193-87.134522 0-194.179514-157.422356-351.587544-351.601869-351.587544-194.186677 0-351.60187 157.408029-351.60187 351.587544 0 194.171328 157.415192 351.588567 351.60187 351.588566 62.049195 0 120.343879-16.07614 170.94944-44.286645h-85.520769a318.129524 318.129524 0 0 1-68.686359 11.144828zM271.227308 226.564086c-14.898315 33.913391-27.221991 69.901023-36.649712 107.532085-37.800931 10.051937-73.927733 23.188118-107.955734 39.044248 30.67258-63.382563 81.70179-115.076922 144.605446-146.576333z m-24.414039 268.550338c1.047866-45.456285 6.367011-89.51371 15.422247-131.554198 43.031049-9.981329 88.206948-15.829524 134.848221-16.962323v148.516521H246.813269z m150.270468 33.483603v150.258188c-46.433542-1.071402-91.413989-6.584975-134.272099-15.998369-9.414417-42.85197-14.929014-87.827301-16.000416-134.260843h150.272515zM107.901499 421.588851c36.532031-19.785625 76.118632-36.144198 118.067022-48.495504-7.514137 39.268352-11.924587 80.08599-12.851702 122.020054H95.370091a318.0231 318.0231 0 0 1 12.531408-73.52455z m-12.531408 107.009176h117.745704c0.952698 43.083238 5.580089 84.98558 13.47592 125.242445-41.428551-11.553127-80.556711-26.824949-116.722398-45.281299-8.081049-25.418926-13.06455-52.220339-14.499226-79.961146z m33.164331 125.856429c33.562397 14.742772 69.14173 26.984584 106.34812 36.376489 9.388834 37.19104 21.60711 72.770374 36.344766 106.319467-61.61429-30.856775-111.834065-81.08576-142.692886-142.695956z m268.550339 175.846984c-27.740808-1.434675-54.541197-6.417153-79.96217-14.497179-18.459421-36.165688-33.731242-75.2918-45.287439-116.714212 40.258912 7.896854 82.164325 12.515035 125.248585 13.468756v117.742635z m-0.001024-636.549668v117.391641c-43.154869 1.003863-85.130889 5.879917-125.4512 14.210653 11.580756-41.693588 26.925233-81.068364 45.491077-117.447922 25.423019-8.081049 52.226478-13.063527 79.970356-14.497179-0.00307 0.11461-0.010233 0.228197-0.010233 0.342807z m33.486672 301.362652V346.597903c45.671179 1.108241 89.937358 6.736425 132.159996 16.343223 9.608845 42.22673 15.253402 86.49291 16.361643 132.173298H430.570409z m301.722856 0H614.548584c-0.977257-42.006719-5.633301-82.891895-13.5629-122.225739 42.208311 12.375865 82.034365 28.806069 118.771057 48.703236a318.036403 318.036403 0 0 1 12.536524 73.522503z m-31.254841-121.971959c-34.384112-16.021905-70.91205-29.268604-109.145839-39.359426-10.091846-38.225603-23.327288-74.753541-39.34817-109.130489 64.687278 31.29782 117.191072 83.807754 148.494009 148.489915zM504.083703 205.931163c19.899212 36.733623 36.329417 76.558653 48.708352 118.761847-39.330774-7.927553-80.216973-12.571317-122.221646-13.549597V193.752796c0-0.11461-0.007163-0.228197-0.009209-0.342808 25.406646 1.312902 50.028417 5.601578 73.522503 12.521175z" fill="#d81e06" p-id="37077"></path></svg>